<svg viewBox="0 0 10.6665 13.3331" xmlns="http://www.w3.org/2000/svg" xmlns:xlink="http://www.w3.org/1999/xlink" width="10.666504" height="13.333130" fill="none" customFrame="#000000">
	<path id="bookmark" d="M10.0822 0.584955Q9.89922 0.40193 9.66715 0.267949Q9.4351 0.133972 9.1851 0.0669853Q8.9351 0 8.66716 0L2.00049 0Q1.73254 0 1.48255 0.0669856Q1.23254 0.133973 1.00049 0.267949Q0.768438 0.401924 0.585426 0.584936Q0.402413 0.767949 0.268438 1Q0.13446 1.23206 0.0674731 1.48206Q0.000488281 1.73206 0.000488281 2L0.000488281 12.0002C0.00056535 12.2378 0.0599071 12.4595 0.178514 12.6654C0.297121 12.8713 0.459176 13.0338 0.664678 13.1531C0.870185 13.2723 1.09173 13.3323 1.32932 13.3331C1.56691 13.3339 1.78888 13.2754 1.99522 13.1575L5.00315 11.4389C5.10561 11.3804 5.21583 11.3511 5.33382 11.3511C5.45181 11.3511 5.56201 11.3803 5.66442 11.4388L8.67249 13.1575C8.87879 13.2754 9.10073 13.3339 9.33832 13.3331C9.57591 13.3323 9.79746 13.2723 10.003 13.1531C10.2085 13.0338 10.3705 12.8713 10.4891 12.6654Q10.5777 12.5117 10.6222 12.3461Q10.6671 12.1791 10.6672 12L10.6672 2Q10.6672 1.73206 10.6002 1.48206Q10.5332 1.23206 10.3992 1Q10.2652 0.767962 10.0822 0.584955ZM8.83978 1.35566Q8.92313 1.37799 9.00049 1.42265C9.10362 1.48219 9.18496 1.56353 9.2445 1.66666Q9.28917 1.74404 9.3115 1.82739Q9.33382 1.91071 9.33382 2L9.33382 11.9998L6.32589 10.2812C6.01848 10.1056 5.68779 10.0178 5.33382 10.0178Q5.06835 10.0178 4.82036 10.0836Q4.57235 10.1494 4.34182 10.2811L1.33382 11.9998L1.33382 2Q1.33382 1.91069 1.35615 1.82736Q1.37848 1.74402 1.42314 1.66667C1.48268 1.56353 1.56402 1.48219 1.66716 1.42265Q1.7445 1.37799 1.82784 1.35566Q1.91117 1.33333 2.00049 1.33333L8.66716 1.33333Q8.75646 1.33333 8.83978 1.35566Z" fill="rgb(240,242,245)" fill-rule="evenodd" />
</svg>
