<svg viewBox="0 0 12.835 12.8351" xmlns="http://www.w3.org/2000/svg" xmlns:xlink="http://www.w3.org/1999/xlink" width="12.834961" height="12.835083" fill="none" customFrame="#000000">
	<path id="pencil" d="M12.5931 3.24192Q12.7494 2.93524 12.806 2.5778C12.8815 2.10126 12.8097 1.64802 12.5907 1.2181C12.3717 0.78818 12.0473 0.46366 11.6174 0.24454C11.1876 0.02544 10.7344 -0.04644 10.2578 0.02894C9.78122 0.1043 9.3723 0.31252 9.03104 0.65358L7.81684 1.86806C7.79522 1.8845 7.77442 1.90262 7.75458 1.92246C7.7347 1.94234 7.71654 1.96318 7.70008 1.98484L1.2457 8.44068C1.03986 8.6459 0.894242 8.88778 0.808842 9.16626L0.0377822 11.7065C-0.00877775 11.8623 -0.0122978 12.0182 0.0271822 12.1741C0.0666623 12.3301 0.143342 12.465 0.257202 12.5787Q0.342722 12.664 0.444102 12.7214Q0.545202 12.7787 0.662082 12.808C0.818142 12.8473 0.973202 12.8437 1.1273 12.7974L3.66792 12.027C3.94644 11.9423 4.18868 11.7973 4.39462 11.592L10.8502 5.13544C10.872 5.11892 10.8929 5.1007 10.9129 5.08074C10.9328 5.06076 10.9511 5.03978 10.9676 5.018L12.1811 3.80438Q12.4369 3.54852 12.5931 3.24192ZM10.4964 3.8393L11.356 2.97948C11.5185 2.81698 11.6178 2.62224 11.6537 2.39526C11.6897 2.1683 11.6555 1.95242 11.5512 1.74766C11.4469 1.5429 11.2923 1.38834 11.0876 1.28398C10.8829 1.17962 10.667 1.14538 10.44 1.18128C10.213 1.21718 10.0183 1.31634 9.85574 1.47878L8.9959 2.33882L10.4964 3.8393ZM9.67146 4.6643L8.17104 3.16388L2.07074 9.26554C2.00156 9.33452 1.95272 9.41544 1.92426 9.50828L1.31304 11.522L3.32936 10.9105C3.42178 10.8824 3.50232 10.8342 3.57098 10.7657L9.67146 4.6643Z" fill="rgb(59,110,232)" fill-rule="evenodd" />
</svg>
