<svg viewBox="0 0 12.8359 12.8354" xmlns="http://www.w3.org/2000/svg" xmlns:xlink="http://www.w3.org/1999/xlink" width="12.835938" height="12.835449" fill="none" customFrame="#000000">
	<path id="send" d="M7.35447 12.286C7.42259 12.4558 7.53303 12.5909 7.68577 12.6914C7.83851 12.7918 8.00625 12.8397 8.18901 12.835C8.37177 12.8304 8.53685 12.7739 8.68425 12.6658C8.83163 12.5576 8.93499 12.4171 8.99429 12.2442L12.7861 1.16043C12.8414 1.00753 12.8506 0.848528 12.8138 0.683388C12.777 0.518268 12.6987 0.375888 12.5791 0.256248C12.4595 0.136628 12.3171 0.0583883 12.152 0.0215683C11.9868 -0.0152517 11.8247 -0.00493173 11.6656 0.0525483L0.591592 3.84093C0.418392 3.90033 0.277712 4.00373 0.169572 4.15113C0.0614124 4.29851 0.00499242 4.46359 0.000312417 4.64635C-0.00436758 4.82911 0.0435324 4.99685 0.143992 5.14959C0.244452 5.30233 0.379512 5.41275 0.549192 5.48083L5.17513 7.33587C5.24655 7.36447 5.30971 7.40539 5.36459 7.45865C5.36657 7.46069 5.36857 7.46271 5.37059 7.46473C5.37275 7.46689 5.37493 7.46903 5.37711 7.47115C5.43031 7.52587 5.47119 7.58873 5.49977 7.65973L7.35447 12.286ZM6.53759 7.12275C6.55339 7.15591 6.56821 7.18971 6.58207 7.22415L8.14495 11.1225L11.0605 2.60031L6.53759 7.12275ZM10.2365 1.77433L5.71239 6.29805C5.67871 6.28205 5.64437 6.26703 5.60937 6.25303L1.71271 4.69043L10.2365 1.77433Z" fill="rgb(255,255,255)" fill-rule="evenodd" />
</svg>
